<mxfile host="65bd71144e">
    <diagram name="PÃ¡gina-1" id="1dni6E9od8jBRLpsDsig">
        <mxGraphModel dx="1278" dy="922" grid="1" gridSize="10" guides="1" tooltips="1" connect="1" arrows="1" fold="1" page="1" pageScale="1" pageWidth="827" pageHeight="1169" math="0" shadow="0">
            <root>
                <mxCell id="0"/>
                <mxCell id="1" parent="0"/>
                <mxCell id="lmVj57NNJEVZ-8AArP_h-80" value="Internal Processing" style="swimlane;whiteSpace=wrap;html=1;" parent="1" vertex="1">
                    <mxGeometry x="290" y="20" width="910" height="420" as="geometry"/>
                </mxCell>
                <mxCell id="210FtMxlqLZJQboL9k_r-12" style="edgeStyle=orthogonalEdgeStyle;rounded=0;orthogonalLoop=1;jettySize=auto;html=1;exitX=0.25;exitY=1;exitDx=0;exitDy=0;entryX=1;entryY=0.5;entryDx=0;entryDy=0;dashed=1;endArrow=open;endFill=0;" parent="lmVj57NNJEVZ-8AArP_h-80" source="lmVj57NNJEVZ-8AArP_h-81" target="210FtMxlqLZJQboL9k_r-1" edge="1">
                    <mxGeometry relative="1" as="geometry"/>
                </mxCell>
                <mxCell id="210FtMxlqLZJQboL9k_r-13" value="Rows&lt;br&gt;or Error" style="edgeLabel;html=1;align=center;verticalAlign=middle;resizable=0;points=[];" parent="210FtMxlqLZJQboL9k_r-12" connectable="0" vertex="1">
                    <mxGeometry x="0.4941" relative="1" as="geometry">
                        <mxPoint x="57" as="offset"/>
                    </mxGeometry>
                </mxCell>
                <mxCell id="lmVj57NNJEVZ-8AArP_h-81" value="Key-Value&lt;br&gt;Library&lt;br&gt;&lt;font style=&quot;font-size: 8px;&quot;&gt;(gustapinto/go-kv-store)&lt;/font&gt;" style="shape=process;whiteSpace=wrap;html=1;backgroundOutline=1;" parent="lmVj57NNJEVZ-8AArP_h-80" vertex="1">
                    <mxGeometry x="770" y="230" width="120" height="60" as="geometry"/>
                </mxCell>
                <mxCell id="210FtMxlqLZJQboL9k_r-10" style="rounded=0;orthogonalLoop=1;jettySize=auto;html=1;exitX=1;exitY=0;exitDx=0;exitDy=0;entryX=0;entryY=0.75;entryDx=0;entryDy=0;" parent="lmVj57NNJEVZ-8AArP_h-80" source="210FtMxlqLZJQboL9k_r-1" target="lmVj57NNJEVZ-8AArP_h-81" edge="1">
                    <mxGeometry relative="1" as="geometry"/>
                </mxCell>
                <mxCell id="210FtMxlqLZJQboL9k_r-11" value="Get" style="edgeLabel;html=1;align=center;verticalAlign=middle;resizable=0;points=[];" parent="210FtMxlqLZJQboL9k_r-10" connectable="0" vertex="1">
                    <mxGeometry x="-0.3199" y="3" relative="1" as="geometry">
                        <mxPoint as="offset"/>
                    </mxGeometry>
                </mxCell>
                <mxCell id="210FtMxlqLZJQboL9k_r-1" value="DQL&lt;br&gt;Operators&lt;br&gt;&lt;div&gt;&lt;/div&gt;" style="shape=process;whiteSpace=wrap;html=1;backgroundOutline=1;" parent="lmVj57NNJEVZ-8AArP_h-80" vertex="1">
                    <mxGeometry x="580" y="330" width="120" height="60" as="geometry"/>
                </mxCell>
                <mxCell id="lmVj57NNJEVZ-8AArP_h-79" value="External Interface" style="swimlane;whiteSpace=wrap;html=1;swimlaneLine=1;glass=0;rounded=0;shadow=0;" parent="1" vertex="1">
                    <mxGeometry x="10" y="20" width="280" height="420" as="geometry"/>
                </mxCell>
                <mxCell id="JB8IRyFHj8zUx9smk3R5-8" style="edgeStyle=orthogonalEdgeStyle;rounded=0;orthogonalLoop=1;jettySize=auto;html=1;exitX=0;exitY=0.75;exitDx=0;exitDy=0;dashed=1;endArrow=open;endFill=0;" parent="lmVj57NNJEVZ-8AArP_h-79" edge="1">
                    <mxGeometry relative="1" as="geometry">
                        <mxPoint x="120" y="150" as="sourcePoint"/>
                        <mxPoint x="50" y="150" as="targetPoint"/>
                    </mxGeometry>
                </mxCell>
                <mxCell id="JB8IRyFHj8zUx9smk3R5-9" value="Result" style="edgeLabel;html=1;align=center;verticalAlign=middle;resizable=0;points=[];" parent="JB8IRyFHj8zUx9smk3R5-8" connectable="0" vertex="1">
                    <mxGeometry x="0.1333" y="-3" relative="1" as="geometry">
                        <mxPoint x="1" as="offset"/>
                    </mxGeometry>
                </mxCell>
                <mxCell id="lmVj57NNJEVZ-8AArP_h-77" style="edgeStyle=orthogonalEdgeStyle;rounded=0;orthogonalLoop=1;jettySize=auto;html=1;entryX=-0.004;entryY=0.367;entryDx=0;entryDy=0;entryPerimeter=0;" parent="1" source="lmVj57NNJEVZ-8AArP_h-30" target="lmVj57NNJEVZ-8AArP_h-33" edge="1">
                    <mxGeometry relative="1" as="geometry">
                        <Array as="points">
                            <mxPoint x="80" y="142"/>
                            <mxPoint x="80" y="142"/>
                        </Array>
                    </mxGeometry>
                </mxCell>
                <mxCell id="lmVj57NNJEVZ-8AArP_h-78" value="Query()" style="edgeLabel;html=1;align=center;verticalAlign=middle;resizable=0;points=[];" parent="lmVj57NNJEVZ-8AArP_h-77" vertex="1" connectable="0">
                    <mxGeometry x="0.0513" y="1" relative="1" as="geometry">
                        <mxPoint x="-6" as="offset"/>
                    </mxGeometry>
                </mxCell>
                <mxCell id="lmVj57NNJEVZ-8AArP_h-30" value="Caller" style="shape=umlActor;verticalLabelPosition=bottom;verticalAlign=top;html=1;outlineConnect=0;" parent="1" vertex="1">
                    <mxGeometry x="30" y="120" width="30" height="60" as="geometry"/>
                </mxCell>
                <mxCell id="lmVj57NNJEVZ-8AArP_h-48" style="edgeStyle=orthogonalEdgeStyle;rounded=0;orthogonalLoop=1;jettySize=auto;html=1;exitX=1;exitY=0.25;exitDx=0;exitDy=0;entryX=0;entryY=0.25;entryDx=0;entryDy=0;" parent="1" source="lmVj57NNJEVZ-8AArP_h-33" target="lmVj57NNJEVZ-8AArP_h-34" edge="1">
                    <mxGeometry relative="1" as="geometry"/>
                </mxCell>
                <mxCell id="lmVj57NNJEVZ-8AArP_h-49" value="Query" style="edgeLabel;html=1;align=center;verticalAlign=middle;resizable=0;points=[];" parent="lmVj57NNJEVZ-8AArP_h-48" vertex="1" connectable="0">
                    <mxGeometry x="-0.32" y="4" relative="1" as="geometry">
                        <mxPoint x="9" as="offset"/>
                    </mxGeometry>
                </mxCell>
                <mxCell id="lmVj57NNJEVZ-8AArP_h-33" value="Interface&lt;div&gt;gRPC&lt;/div&gt;" style="rounded=1;whiteSpace=wrap;html=1;strokeWidth=1;shape=mxgraph.flowchart.multi-document;" parent="1" vertex="1">
                    <mxGeometry x="130" y="120" width="120" height="60" as="geometry"/>
                </mxCell>
                <mxCell id="lmVj57NNJEVZ-8AArP_h-38" style="rounded=0;orthogonalLoop=1;jettySize=auto;html=1;exitX=1;exitY=0.25;exitDx=0;exitDy=0;entryX=0;entryY=0.5;entryDx=0;entryDy=0;" parent="1" source="lmVj57NNJEVZ-8AArP_h-34" target="lmVj57NNJEVZ-8AArP_h-37" edge="1">
                    <mxGeometry relative="1" as="geometry"/>
                </mxCell>
                <mxCell id="lmVj57NNJEVZ-8AArP_h-46" value="Query" style="edgeLabel;html=1;align=center;verticalAlign=middle;resizable=0;points=[];" parent="lmVj57NNJEVZ-8AArP_h-38" vertex="1" connectable="0">
                    <mxGeometry x="0.0947" y="-4" relative="1" as="geometry">
                        <mxPoint as="offset"/>
                    </mxGeometry>
                </mxCell>
                <mxCell id="lmVj57NNJEVZ-8AArP_h-42" style="rounded=0;orthogonalLoop=1;jettySize=auto;html=1;exitX=1;exitY=0.75;exitDx=0;exitDy=0;entryX=0;entryY=0.5;entryDx=0;entryDy=0;" parent="1" source="lmVj57NNJEVZ-8AArP_h-34" target="lmVj57NNJEVZ-8AArP_h-41" edge="1">
                    <mxGeometry relative="1" as="geometry"/>
                </mxCell>
                <mxCell id="lmVj57NNJEVZ-8AArP_h-50" value="Execution&lt;br&gt;plan" style="edgeLabel;html=1;align=center;verticalAlign=middle;resizable=0;points=[];" parent="lmVj57NNJEVZ-8AArP_h-42" vertex="1" connectable="0">
                    <mxGeometry x="-0.0961" y="-1" relative="1" as="geometry">
                        <mxPoint as="offset"/>
                    </mxGeometry>
                </mxCell>
                <mxCell id="lmVj57NNJEVZ-8AArP_h-75" style="edgeStyle=orthogonalEdgeStyle;rounded=0;orthogonalLoop=1;jettySize=auto;html=1;exitX=0;exitY=0.75;exitDx=0;exitDy=0;entryX=1;entryY=0.75;entryDx=0;entryDy=0;dashed=1;endArrow=open;endFill=0;" parent="1" source="lmVj57NNJEVZ-8AArP_h-34" target="lmVj57NNJEVZ-8AArP_h-33" edge="1">
                    <mxGeometry relative="1" as="geometry"/>
                </mxCell>
                <mxCell id="lmVj57NNJEVZ-8AArP_h-76" value="Result" style="edgeLabel;html=1;align=center;verticalAlign=middle;resizable=0;points=[];" parent="lmVj57NNJEVZ-8AArP_h-75" vertex="1" connectable="0">
                    <mxGeometry x="0.1333" y="-3" relative="1" as="geometry">
                        <mxPoint x="1" as="offset"/>
                    </mxGeometry>
                </mxCell>
                <mxCell id="lmVj57NNJEVZ-8AArP_h-34" value="Planner" style="shape=process;whiteSpace=wrap;html=1;backgroundOutline=1;" parent="1" vertex="1">
                    <mxGeometry x="340" y="120" width="120" height="60" as="geometry"/>
                </mxCell>
                <mxCell id="lmVj57NNJEVZ-8AArP_h-83" style="rounded=0;orthogonalLoop=1;jettySize=auto;html=1;exitX=1;exitY=0.5;exitDx=0;exitDy=0;entryX=0;entryY=0.5;entryDx=0;entryDy=0;" parent="1" source="lmVj57NNJEVZ-8AArP_h-35" target="lmVj57NNJEVZ-8AArP_h-81" edge="1">
                    <mxGeometry relative="1" as="geometry"/>
                </mxCell>
                <mxCell id="JB8IRyFHj8zUx9smk3R5-7" value="Put/Get" style="edgeLabel;html=1;align=center;verticalAlign=middle;resizable=0;points=[];" parent="lmVj57NNJEVZ-8AArP_h-83" connectable="0" vertex="1">
                    <mxGeometry x="-0.0306" y="-3" relative="1" as="geometry">
                        <mxPoint as="offset"/>
                    </mxGeometry>
                </mxCell>
                <mxCell id="lmVj57NNJEVZ-8AArP_h-35" value="DDL&lt;br&gt;Operators&lt;br&gt;&lt;div&gt;&lt;/div&gt;" style="shape=process;whiteSpace=wrap;html=1;backgroundOutline=1;" parent="1" vertex="1">
                    <mxGeometry x="870" y="250" width="120" height="60" as="geometry"/>
                </mxCell>
                <mxCell id="lmVj57NNJEVZ-8AArP_h-82" style="rounded=0;orthogonalLoop=1;jettySize=auto;html=1;exitX=1;exitY=0.5;exitDx=0;exitDy=0;entryX=0;entryY=0.25;entryDx=0;entryDy=0;" parent="1" source="lmVj57NNJEVZ-8AArP_h-36" target="lmVj57NNJEVZ-8AArP_h-81" edge="1">
                    <mxGeometry relative="1" as="geometry"/>
                </mxCell>
                <mxCell id="JB8IRyFHj8zUx9smk3R5-6" value="Put/Get" style="edgeLabel;html=1;align=center;verticalAlign=middle;resizable=0;points=[];" parent="lmVj57NNJEVZ-8AArP_h-82" connectable="0" vertex="1">
                    <mxGeometry x="-0.0634" y="-2" relative="1" as="geometry">
                        <mxPoint as="offset"/>
                    </mxGeometry>
                </mxCell>
                <mxCell id="lmVj57NNJEVZ-8AArP_h-36" value="DML&lt;br&gt;Operators&lt;br&gt;&lt;div&gt;&lt;/div&gt;" style="shape=process;whiteSpace=wrap;html=1;backgroundOutline=1;" parent="1" vertex="1">
                    <mxGeometry x="870" y="150" width="120" height="60" as="geometry"/>
                </mxCell>
                <mxCell id="lmVj57NNJEVZ-8AArP_h-44" style="edgeStyle=orthogonalEdgeStyle;rounded=0;orthogonalLoop=1;jettySize=auto;html=1;exitX=0.5;exitY=1;exitDx=0;exitDy=0;entryX=1;entryY=0.5;entryDx=0;entryDy=0;dashed=1;endArrow=open;endFill=0;" parent="1" source="lmVj57NNJEVZ-8AArP_h-37" target="lmVj57NNJEVZ-8AArP_h-34" edge="1">
                    <mxGeometry relative="1" as="geometry"/>
                </mxCell>
                <mxCell id="lmVj57NNJEVZ-8AArP_h-45" value="Execution&lt;br&gt;Plan" style="edgeLabel;html=1;align=center;verticalAlign=middle;resizable=0;points=[];" parent="lmVj57NNJEVZ-8AArP_h-44" vertex="1" connectable="0">
                    <mxGeometry x="-0.3714" relative="1" as="geometry">
                        <mxPoint as="offset"/>
                    </mxGeometry>
                </mxCell>
                <mxCell id="lmVj57NNJEVZ-8AArP_h-37" value="Parser SQL" style="shape=process;whiteSpace=wrap;html=1;backgroundOutline=1;" parent="1" vertex="1">
                    <mxGeometry x="530" y="60" width="120" height="60" as="geometry"/>
                </mxCell>
                <mxCell id="lmVj57NNJEVZ-8AArP_h-58" style="edgeStyle=orthogonalEdgeStyle;rounded=0;orthogonalLoop=1;jettySize=auto;html=1;exitX=1;exitY=0.25;exitDx=0;exitDy=0;entryX=0;entryY=0.25;entryDx=0;entryDy=0;" parent="1" source="lmVj57NNJEVZ-8AArP_h-41" target="lmVj57NNJEVZ-8AArP_h-54" edge="1">
                    <mxGeometry relative="1" as="geometry"/>
                </mxCell>
                <mxCell id="lmVj57NNJEVZ-8AArP_h-59" value="Call" style="edgeLabel;html=1;align=center;verticalAlign=middle;resizable=0;points=[];" parent="lmVj57NNJEVZ-8AArP_h-58" vertex="1" connectable="0">
                    <mxGeometry x="-0.12" y="1" relative="1" as="geometry">
                        <mxPoint as="offset"/>
                    </mxGeometry>
                </mxCell>
                <mxCell id="lmVj57NNJEVZ-8AArP_h-73" style="edgeStyle=orthogonalEdgeStyle;rounded=0;orthogonalLoop=1;jettySize=auto;html=1;exitX=0;exitY=0.75;exitDx=0;exitDy=0;entryX=0.75;entryY=1;entryDx=0;entryDy=0;endArrow=open;endFill=0;startArrow=none;startFill=0;dashed=1;" parent="1" source="lmVj57NNJEVZ-8AArP_h-41" target="lmVj57NNJEVZ-8AArP_h-34" edge="1">
                    <mxGeometry relative="1" as="geometry"/>
                </mxCell>
                <mxCell id="lmVj57NNJEVZ-8AArP_h-74" value="Result" style="edgeLabel;html=1;align=center;verticalAlign=middle;resizable=0;points=[];" parent="lmVj57NNJEVZ-8AArP_h-73" vertex="1" connectable="0">
                    <mxGeometry x="-0.4754" y="-3" relative="1" as="geometry">
                        <mxPoint as="offset"/>
                    </mxGeometry>
                </mxCell>
                <mxCell id="lmVj57NNJEVZ-8AArP_h-41" value="Executor" style="shape=process;whiteSpace=wrap;html=1;backgroundOutline=1;" parent="1" vertex="1">
                    <mxGeometry x="530" y="200" width="120" height="60" as="geometry"/>
                </mxCell>
                <mxCell id="lmVj57NNJEVZ-8AArP_h-61" style="edgeStyle=orthogonalEdgeStyle;rounded=0;orthogonalLoop=1;jettySize=auto;html=1;exitX=1.06;exitY=0.462;exitDx=0;exitDy=0;entryX=0.005;entryY=0.327;entryDx=0;entryDy=0;entryPerimeter=0;exitPerimeter=0;" parent="1" source="lmVj57NNJEVZ-8AArP_h-54" target="lmVj57NNJEVZ-8AArP_h-35" edge="1">
                    <mxGeometry relative="1" as="geometry"/>
                </mxCell>
                <mxCell id="lmVj57NNJEVZ-8AArP_h-62" value="Call" style="edgeLabel;html=1;align=center;verticalAlign=middle;resizable=0;points=[];" parent="lmVj57NNJEVZ-8AArP_h-61" vertex="1" connectable="0">
                    <mxGeometry x="0.1608" y="-2" relative="1" as="geometry">
                        <mxPoint x="-10" y="-2" as="offset"/>
                    </mxGeometry>
                </mxCell>
                <mxCell id="lmVj57NNJEVZ-8AArP_h-54" value="Low level operators" style="rounded=0;whiteSpace=wrap;html=1;horizontal=0;" parent="1" vertex="1">
                    <mxGeometry x="740" y="150" width="50" height="260" as="geometry"/>
                </mxCell>
                <mxCell id="lmVj57NNJEVZ-8AArP_h-63" style="edgeStyle=orthogonalEdgeStyle;rounded=0;orthogonalLoop=1;jettySize=auto;html=1;exitX=0;exitY=0.75;exitDx=0;exitDy=0;dashed=1;endArrow=open;endFill=0;entryX=0.96;entryY=0.554;entryDx=0;entryDy=0;entryPerimeter=0;" parent="1" source="lmVj57NNJEVZ-8AArP_h-35" target="lmVj57NNJEVZ-8AArP_h-54" edge="1">
                    <mxGeometry relative="1" as="geometry">
                        <mxPoint x="800" y="295" as="targetPoint"/>
                    </mxGeometry>
                </mxCell>
                <mxCell id="lmVj57NNJEVZ-8AArP_h-64" value="Ok&lt;div&gt;or Error&lt;/div&gt;" style="edgeLabel;html=1;align=center;verticalAlign=middle;resizable=0;points=[];" parent="lmVj57NNJEVZ-8AArP_h-63" vertex="1" connectable="0">
                    <mxGeometry x="-0.1994" relative="1" as="geometry">
                        <mxPoint x="-10" y="5" as="offset"/>
                    </mxGeometry>
                </mxCell>
                <mxCell id="lmVj57NNJEVZ-8AArP_h-67" style="edgeStyle=orthogonalEdgeStyle;rounded=0;orthogonalLoop=1;jettySize=auto;html=1;exitX=0;exitY=0.41;exitDx=0;exitDy=0;entryX=1.044;entryY=0.097;entryDx=0;entryDy=0;entryPerimeter=0;startArrow=classic;startFill=1;endArrow=none;endFill=0;exitPerimeter=0;" parent="1" source="lmVj57NNJEVZ-8AArP_h-36" target="lmVj57NNJEVZ-8AArP_h-54" edge="1">
                    <mxGeometry relative="1" as="geometry">
                        <Array as="points"/>
                    </mxGeometry>
                </mxCell>
                <mxCell id="lmVj57NNJEVZ-8AArP_h-68" value="Call" style="edgeLabel;html=1;align=center;verticalAlign=middle;resizable=0;points=[];" parent="lmVj57NNJEVZ-8AArP_h-67" vertex="1" connectable="0">
                    <mxGeometry x="0.07" y="-2" relative="1" as="geometry">
                        <mxPoint as="offset"/>
                    </mxGeometry>
                </mxCell>
                <mxCell id="lmVj57NNJEVZ-8AArP_h-69" style="edgeStyle=orthogonalEdgeStyle;rounded=0;orthogonalLoop=1;jettySize=auto;html=1;exitX=0;exitY=0.75;exitDx=0;exitDy=0;entryX=0.98;entryY=0.173;entryDx=0;entryDy=0;entryPerimeter=0;endArrow=open;endFill=0;dashed=1;" parent="1" source="lmVj57NNJEVZ-8AArP_h-36" target="lmVj57NNJEVZ-8AArP_h-54" edge="1">
                    <mxGeometry relative="1" as="geometry"/>
                </mxCell>
                <mxCell id="lmVj57NNJEVZ-8AArP_h-70" value="Ok&lt;br&gt;or Error" style="edgeLabel;html=1;align=center;verticalAlign=middle;resizable=0;points=[];" parent="lmVj57NNJEVZ-8AArP_h-69" vertex="1" connectable="0">
                    <mxGeometry x="-0.1385" y="-1" relative="1" as="geometry">
                        <mxPoint x="-8" y="6" as="offset"/>
                    </mxGeometry>
                </mxCell>
                <mxCell id="lmVj57NNJEVZ-8AArP_h-71" style="edgeStyle=orthogonalEdgeStyle;rounded=0;orthogonalLoop=1;jettySize=auto;html=1;exitX=1;exitY=0.75;exitDx=0;exitDy=0;entryX=-0.04;entryY=0.365;entryDx=0;entryDy=0;startArrow=open;startFill=0;endArrow=none;endFill=0;dashed=1;entryPerimeter=0;" parent="1" source="lmVj57NNJEVZ-8AArP_h-41" target="lmVj57NNJEVZ-8AArP_h-54" edge="1">
                    <mxGeometry relative="1" as="geometry"/>
                </mxCell>
                <mxCell id="lmVj57NNJEVZ-8AArP_h-72" value="Result" style="edgeLabel;html=1;align=center;verticalAlign=middle;resizable=0;points=[];" parent="lmVj57NNJEVZ-8AArP_h-71" vertex="1" connectable="0">
                    <mxGeometry x="0.1775" y="1" relative="1" as="geometry">
                        <mxPoint as="offset"/>
                    </mxGeometry>
                </mxCell>
                <mxCell id="JB8IRyFHj8zUx9smk3R5-1" style="edgeStyle=orthogonalEdgeStyle;rounded=0;orthogonalLoop=1;jettySize=auto;html=1;exitX=0.25;exitY=0;exitDx=0;exitDy=0;entryX=1;entryY=0.25;entryDx=0;entryDy=0;endArrow=open;endFill=0;dashed=1;" parent="1" source="lmVj57NNJEVZ-8AArP_h-81" target="lmVj57NNJEVZ-8AArP_h-36" edge="1">
                    <mxGeometry relative="1" as="geometry"/>
                </mxCell>
                <mxCell id="JB8IRyFHj8zUx9smk3R5-2" value="Ok/Error" style="edgeLabel;html=1;align=center;verticalAlign=middle;resizable=0;points=[];" parent="JB8IRyFHj8zUx9smk3R5-1" connectable="0" vertex="1">
                    <mxGeometry x="-0.114" y="1" relative="1" as="geometry">
                        <mxPoint x="5" as="offset"/>
                    </mxGeometry>
                </mxCell>
                <mxCell id="JB8IRyFHj8zUx9smk3R5-3" style="edgeStyle=orthogonalEdgeStyle;rounded=0;orthogonalLoop=1;jettySize=auto;html=1;exitX=0;exitY=0.75;exitDx=0;exitDy=0;entryX=1;entryY=0.75;entryDx=0;entryDy=0;endArrow=open;endFill=0;dashed=1;" parent="1" source="lmVj57NNJEVZ-8AArP_h-81" target="lmVj57NNJEVZ-8AArP_h-35" edge="1">
                    <mxGeometry relative="1" as="geometry"/>
                </mxCell>
                <mxCell id="JB8IRyFHj8zUx9smk3R5-4" value="Ok/Error" style="edgeLabel;html=1;align=center;verticalAlign=middle;resizable=0;points=[];" parent="JB8IRyFHj8zUx9smk3R5-3" connectable="0" vertex="1">
                    <mxGeometry x="-0.2945" relative="1" as="geometry">
                        <mxPoint as="offset"/>
                    </mxGeometry>
                </mxCell>
                <mxCell id="210FtMxlqLZJQboL9k_r-4" style="edgeStyle=orthogonalEdgeStyle;rounded=0;orthogonalLoop=1;jettySize=auto;html=1;exitX=0;exitY=0.25;exitDx=0;exitDy=0;entryX=1;entryY=0.827;entryDx=0;entryDy=0;entryPerimeter=0;startArrow=classic;startFill=1;endArrow=none;endFill=0;" parent="1" source="210FtMxlqLZJQboL9k_r-1" target="lmVj57NNJEVZ-8AArP_h-54" edge="1">
                    <mxGeometry relative="1" as="geometry"/>
                </mxCell>
                <mxCell id="210FtMxlqLZJQboL9k_r-6" value="Call" style="edgeLabel;html=1;align=center;verticalAlign=middle;resizable=0;points=[];" parent="210FtMxlqLZJQboL9k_r-4" connectable="0" vertex="1">
                    <mxGeometry x="0.175" y="-3" relative="1" as="geometry">
                        <mxPoint x="4" as="offset"/>
                    </mxGeometry>
                </mxCell>
                <mxCell id="210FtMxlqLZJQboL9k_r-7" style="edgeStyle=orthogonalEdgeStyle;rounded=0;orthogonalLoop=1;jettySize=auto;html=1;exitX=0;exitY=0.75;exitDx=0;exitDy=0;entryX=1;entryY=0.942;entryDx=0;entryDy=0;entryPerimeter=0;dashed=1;endArrow=open;endFill=0;" parent="1" source="210FtMxlqLZJQboL9k_r-1" target="lmVj57NNJEVZ-8AArP_h-54" edge="1">
                    <mxGeometry relative="1" as="geometry"/>
                </mxCell>
                <mxCell id="210FtMxlqLZJQboL9k_r-8" value="Rows&lt;div&gt;or Error&lt;/div&gt;" style="edgeLabel;html=1;align=center;verticalAlign=middle;resizable=0;points=[];" parent="210FtMxlqLZJQboL9k_r-7" connectable="0" vertex="1">
                    <mxGeometry x="0.4257" y="-4" relative="1" as="geometry">
                        <mxPoint x="14" y="9" as="offset"/>
                    </mxGeometry>
                </mxCell>
            </root>
        </mxGraphModel>
    </diagram>
</mxfile>